<?xml version="1.0" standalone="no"?>
<!DOCTYPE svg PUBLIC "-//W3C//DTD SVG 20010904//EN"
 "http://www.w3.org/TR/2001/REC-SVG-20010904/DTD/svg10.dtd">
<svg version="1.0" xmlns="http://www.w3.org/2000/svg"
 width="480.000000pt" height="480.000000pt" viewBox="0 0 480.000000 480.000000"
 preserveAspectRatio="xMidYMid meet">
<metadata>
Created by potrace 1.14, written by Peter Selinger 2001-2017
</metadata>
<g transform="translate(0.000000,480.000000) scale(0.100000,-0.100000)"
fill="#000000" stroke="none">
<path d="M20 4789 c0 -8 4 -61 9 -119 5 -58 12 -141 16 -185 3 -44 8 -93 10
-110 3 -16 7 -68 10 -115 3 -47 8 -98 10 -115 3 -16 18 -196 35 -400 16 -203
32 -394 35 -422 5 -48 3 -53 -15 -53 -16 0 -20 7 -21 33 l-2 32 -7 -35 c-4
-19 -8 -31 -9 -26 0 4 -19 207 -41 450 -22 242 -42 450 -44 461 -2 11 -4 -926
-5 -2082 l-1 -2103 215 0 215 0 0 39 c0 21 -9 146 -20 277 -11 132 -22 268
-25 304 -3 36 -21 254 -40 485 -19 230 -35 436 -35 457 0 36 0 37 -35 31 -31
-5 -35 -3 -35 16 0 25 15 28 29 4 11 -21 11 -21 34 42 10 28 26 68 34 90 19
52 19 168 -1 224 -9 24 -32 70 -52 102 -20 33 -33 66 -30 74 5 14 -4 139 -34
480 -6 66 -35 419 -66 785 -70 854 -119 1378 -127 1387 -4 3 -7 0 -7 -8z m135
-1608 c3 -36 7 -85 10 -108 4 -33 1 -43 -10 -43 -8 0 -17 12 -21 28 -11 49
-12 48 -15 -8 -2 -52 -2 -51 -10 25 -4 44 -10 103 -13 131 l-6 51 29 -5 c29
-4 30 -6 36 -71z m19 -233 c4 -40 9 -120 11 -177 3 -57 7 -106 10 -109 3 -3 5
-23 5 -44 0 -57 -26 -50 -36 10 -4 26 -6 53 -5 60 1 6 -3 12 -9 12 -5 0 -10
11 -10 25 0 14 5 25 11 25 6 0 8 9 4 21 -5 15 -4 19 4 15 6 -4 11 -2 11 3 0 6
-3 11 -7 11 -5 0 -8 17 -9 38 -1 20 -4 70 -7 110 -4 55 -2 72 8 72 8 0 15 -24
19 -72z m-47 -35 c-2 -16 -4 -3 -4 27 0 30 2 43 4 28 2 -16 2 -40 0 -55z m10
-75 c-3 -8 -6 -5 -6 6 -1 11 2 17 5 13 3 -3 4 -12 1 -19z m0 -50 c-3 -8 -6 -5
-6 6 -1 11 2 17 5 13 3 -3 4 -12 1 -19z m73 -287 c0 -32 3 -80 6 -107 4 -27 3
-46 -1 -42 -8 8 -11 29 -14 88 -1 23 -4 31 -10 22 -6 -11 -9 -10 -13 5 -3 10
-9 27 -13 38 -8 20 -8 20 8 0 8 -11 19 -16 23 -12 5 4 2 12 -5 16 -8 5 -10 14
-6 21 5 9 4 11 -3 6 -7 -4 -12 -1 -12 8 0 9 9 16 20 16 18 0 20 -7 20 -59z
m-29 -102 c-10 -23 -10 -22 -8 8 0 18 5 29 9 25 5 -5 4 -19 -1 -33z m60 -217
c6 -31 6 -32 -12 -17 -10 10 -22 14 -28 11 -13 -8 -24 11 -17 30 3 9 15 14 28
12 16 -2 24 -12 29 -36z m-91 3 c0 -9 -9 -15 -25 -15 -24 0 -32 10 -18 23 12
13 43 7 43 -8z m165 -337 c0 -145 -19 -166 -29 -31 -3 54 -9 127 -11 163 l-5
65 22 -45 c20 -38 23 -61 23 -152z m-115 -253 c0 -8 -9 -15 -20 -15 -25 0 -26
17 -2 23 9 3 18 5 20 6 1 0 2 -6 2 -14z"/>
<path d="M2631 4774 c-6 -15 -9 -34 -6 -44 3 -10 1 -21 -5 -25 -5 -3 -10 -1
-10 5 0 16 -16 4 -42 -32 -12 -17 -17 -28 -10 -24 7 4 12 2 12 -5 0 -7 12 -2
27 12 l26 24 -19 -27 c-10 -15 -26 -28 -34 -28 -62 -5 -76 -20 -19 -21 l44 -1
-40 -10 c-22 -5 -49 -10 -60 -11 -11 -2 -35 -11 -54 -21 -18 -10 -55 -24 -82
-32 -27 -8 -49 -18 -49 -22 0 -4 -12 -8 -26 -9 -15 0 -30 -6 -34 -13 -9 -14
-70 -4 -70 11 0 12 -90 3 -103 -10 -15 -15 -27 -14 -27 4 0 18 -12 19 -29 3
-10 -11 -16 -8 -31 11 -10 14 -16 32 -13 40 2 9 -1 7 -8 -4 -18 -29 -31 -35
-59 -28 -36 8 -59 31 -42 42 11 7 11 9 -2 14 -22 8 -32 7 -28 -4 4 -16 -17
-10 -28 9 -11 16 -11 16 -6 0 3 -10 1 -18 -5 -18 -6 0 -7 -5 -4 -10 4 -6 11
-8 16 -5 5 4 9 -1 9 -10 0 -10 5 -13 12 -9 7 5 8 3 4 -5 -5 -7 -15 -10 -23 -7
-25 10 -82 -15 -76 -32 5 -12 3 -12 -18 -1 -13 7 -28 12 -32 11 -4 -1 -17 2
-27 8 -17 9 -22 7 -32 -15 -10 -22 -8 -28 10 -46 24 -21 28 -44 11 -54 -6 -4
-9 0 -7 11 2 16 -5 20 -42 22 -24 2 -47 8 -51 13 -10 16 -81 -1 -75 -17 4 -10
-4 -14 -28 -14 -19 0 -43 -3 -53 -6 -10 -3 -7 1 7 10 l25 16 -30 -6 c-16 -4
-40 -11 -53 -15 -13 -5 -46 -9 -73 -9 -36 0 -49 -4 -49 -15 0 -8 -18 -23 -40
-33 -22 -10 -37 -21 -34 -25 4 -4 13 -2 21 5 7 6 16 8 19 5 6 -6 -24 -53 -70
-111 -16 -20 -26 -40 -22 -44 4 -4 12 1 17 11 6 9 21 29 35 45 l25 27 -4 -40
c-2 -34 -7 -41 -27 -43 -14 -2 -29 -8 -34 -12 -5 -6 -15 -2 -23 8 -8 9 -12 11
-8 5 3 -7 2 -13 -4 -13 -5 0 -15 -16 -22 -35 -7 -19 -16 -35 -20 -35 -4 0 -9
-14 -11 -32 -4 -43 -22 -46 -59 -8 -17 17 -29 24 -26 15 9 -21 -10 -19 -22 3
-6 9 -11 12 -11 6 0 -5 16 -26 36 -45 34 -33 38 -34 112 -34 42 0 86 4 97 8
11 5 7 1 -10 -9 -16 -9 -52 -18 -80 -20 -27 -2 -57 -4 -65 -4 -10 -1 -9 -4 5
-10 20 -8 20 -9 0 -9 -19 -1 -19 -2 2 -16 12 -8 30 -14 40 -13 10 0 29 0 43
-1 21 -1 22 -3 9 -11 -21 -12 -69 -15 -91 -5 -10 4 -18 3 -18 -3 0 -5 15 -15
33 -23 31 -13 47 -26 47 -42 0 -4 -6 -7 -12 -5 -32 7 -145 -94 -158 -140 -11
-42 -13 -127 -4 -196 7 -51 26 -65 20 -14 -4 30 -3 31 10 13 14 -19 15 -18 15
10 -1 67 1 74 13 69 8 -3 16 11 22 37 9 41 36 71 50 56 4 -3 1 -34 -7 -67 -9
-43 -15 -56 -20 -43 -6 14 -8 12 -8 -10 -1 -16 -5 -26 -9 -23 -5 3 -18 -16
-30 -42 -12 -26 -35 -62 -52 -80 -36 -40 -36 -42 -8 -35 18 4 20 3 12 -6 -18
-19 -84 3 -122 40 l-32 31 0 -40 c0 -31 5 -44 20 -52 26 -14 25 -28 -2 -33
-13 -2 -8 -4 12 -4 40 0 80 -11 80 -22 0 -4 15 -6 33 -4 32 3 32 3 4 -6 -15
-5 -47 -8 -71 -7 -56 3 -52 -19 4 -28 29 -5 38 -10 34 -21 -4 -9 0 -15 9 -15
8 0 20 -6 27 -14 6 -8 18 -12 26 -9 8 3 14 0 14 -7 0 -6 -4 -8 -10 -5 -5 3
-10 -1 -10 -9 0 -10 8 -15 23 -13 17 2 23 -4 25 -25 2 -16 9 -28 17 -28 7 0
15 -3 18 -7 2 -5 2 -2 0 5 -1 8 3 12 9 10 7 -3 15 -15 16 -29 2 -13 11 -33 19
-44 13 -17 14 -17 9 -2 -3 11 -2 16 4 12 6 -3 10 -12 10 -19 0 -15 65 -77 99
-96 12 -6 21 -17 21 -24 0 -29 87 -224 124 -279 14 -21 26 -42 26 -47 0 -4 12
-17 27 -28 20 -14 27 -30 30 -61 2 -28 -1 -41 -10 -41 -9 0 -8 -3 2 -9 11 -7
9 -10 -8 -16 -11 -3 -21 -10 -21 -15 0 -5 7 -7 15 -4 9 4 18 -1 22 -12 4 -11
16 -27 28 -37 14 -12 15 -15 4 -11 -10 3 -20 1 -23 -5 -4 -5 15 -22 41 -37 89
-51 143 -87 143 -97 0 -5 -9 -11 -20 -14 -18 -5 -15 -9 20 -31 28 -19 40 -34
40 -50 0 -15 4 -21 13 -17 6 4 -4 -8 -23 -26 -34 -32 -35 -32 -38 -11 -4 25
-3 25 -36 12 -21 -8 -26 -6 -31 11 -4 11 -12 18 -18 17 -18 -3 -151 61 -160
77 -4 8 -14 12 -21 9 -8 -3 -16 4 -19 16 -5 18 -9 20 -26 11 -25 -14 -41 -14
-21 0 12 8 10 9 -10 7 -14 -2 -25 2 -25 7 -1 21 -17 35 -41 35 -16 0 -23 4
-18 11 4 7 0 9 -13 5 -12 -4 -29 1 -46 14 -14 11 -29 20 -35 20 -5 0 -17 9
-27 20 -10 11 -22 20 -28 20 -5 0 -27 16 -48 35 -39 35 -59 44 -59 25 0 -5 3
-10 8 -10 9 0 36 -59 30 -65 -2 -3 -36 -1 -74 4 -38 5 -70 7 -72 6 -2 -2 6
-23 18 -48 16 -34 19 -50 11 -64 -5 -11 -7 -38 -4 -61 6 -46 11 -43 -67 -42
-42 0 -100 -35 -100 -61 0 -7 16 -30 36 -50 32 -33 36 -43 40 -100 2 -35 9
-77 15 -92 l12 -28 26 25 c15 15 32 26 39 26 6 0 18 12 26 27 21 42 55 68 121
94 33 13 66 28 74 33 15 12 62 10 136 -5 28 -5 75 -11 105 -13 76 -6 177 -28
313 -69 56 -16 67 -23 62 -37 -3 -10 -1 -21 5 -25 16 -10 12 -35 -6 -35 -10 0
-14 -6 -10 -15 6 -18 -16 -20 -45 -5 -14 8 -19 7 -19 -1 0 -6 -7 -8 -16 -5 -8
3 -24 1 -35 -4 -15 -8 -19 -7 -19 5 0 16 -26 21 -32 6 -2 -5 -21 -3 -43 5 -22
7 -48 14 -58 14 -10 0 -16 4 -13 9 4 5 -4 7 -15 4 -15 -4 -27 0 -35 12 -9 12
-14 14 -14 6 0 -10 -9 -12 -33 -7 -78 14 -99 16 -110 9 -16 -10 -36 -13 -141
-18 -76 -3 -92 -7 -115 -28 -15 -13 -32 -22 -39 -19 -7 2 -12 -3 -12 -12 0
-12 -8 -15 -37 -11 l-38 4 35 -29 c42 -37 86 -46 131 -28 19 8 54 15 79 17 25
1 65 7 90 13 25 5 54 11 65 14 10 2 35 11 55 21 37 18 80 18 145 1 22 -6 69
-17 105 -24 114 -24 244 -67 269 -88 13 -12 21 -15 17 -8 -13 23 10 12 47 -22
22 -20 47 -33 62 -34 18 0 42 -16 77 -51 47 -48 77 -59 63 -23 -5 14 -3 14 13
-1 10 -9 23 -17 28 -17 5 0 20 -10 34 -23 14 -13 33 -26 43 -30 9 -3 16 -12
15 -19 -2 -7 3 -12 10 -10 16 3 127 -68 235 -150 51 -39 84 -72 95 -96 9 -21
39 -62 68 -92 79 -85 187 -223 276 -354 77 -113 228 -285 213 -241 -19 52 -27
106 -21 139 7 34 26 42 26 10 0 -8 11 -37 25 -66 14 -28 26 -61 26 -72 1 -16
2 -17 6 -4 2 10 10 15 19 11 25 -9 16 32 -21 97 -20 35 -33 65 -31 68 12 11
37 -10 55 -47 27 -51 41 -60 40 -24 -2 49 -14 77 -39 90 -13 6 -25 19 -26 28
-1 9 -11 26 -21 37 -10 11 -17 22 -15 24 6 9 -33 64 -45 64 -7 0 -13 9 -13 21
0 28 -16 58 -53 96 -17 18 -27 38 -24 47 6 14 -7 31 -28 38 -5 1 -9 13 -7 25
1 13 -6 27 -18 36 -11 7 -17 17 -13 20 3 4 1 7 -5 7 -7 0 -21 9 -31 19 -14 14
-16 22 -7 31 8 9 7 11 -4 8 -9 -2 -14 3 -12 13 1 9 -7 24 -18 34 -18 17 -24
17 -43 6 -21 -13 -21 -12 2 12 21 23 22 27 8 41 -9 9 -21 16 -28 16 -10 0 -10
3 -1 12 15 15 16 32 2 23 -6 -3 -17 1 -26 9 -12 12 -12 16 -2 16 7 0 1 10 -14
21 -18 13 -25 26 -21 36 5 13 2 15 -14 11 -12 -3 -20 -1 -20 6 1 31 -5 42 -25
51 -13 6 -22 18 -22 28 1 9 -2 17 -7 17 -5 0 -9 7 -9 15 0 8 -4 15 -10 15 -5
0 -10 5 -10 11 0 7 -12 22 -26 34 -17 14 -22 25 -15 29 6 4 11 2 11 -3 0 -6 5
-11 11 -11 6 0 -5 20 -26 46 -20 25 -35 47 -33 50 3 2 11 -2 18 -11 7 -8 18
-15 24 -15 13 0 76 74 76 89 0 6 8 11 18 11 9 0 40 3 69 6 l51 6 58 -78 c63
-85 134 -216 134 -249 0 -31 12 -42 48 -42 27 0 32 4 32 23 0 13 -5 26 -11 29
-6 4 -8 13 -5 20 3 8 -2 19 -10 26 -8 6 -12 14 -10 16 6 6 -5 19 -61 79 -56
59 -56 77 -3 72 45 -4 47 -2 24 30 -9 13 -13 30 -10 39 4 9 -1 24 -10 34 -10
11 -13 19 -9 19 4 0 1 8 -8 18 -16 18 -13 62 4 62 11 0 48 -60 80 -130 27 -58
61 -176 78 -274 6 -32 12 -60 13 -62 2 -1 27 -12 56 -23 l52 -21 0 240 c0 136
-4 240 -9 240 -5 0 -9 23 -9 50 -1 29 4 50 10 50 14 0 1 102 -14 111 -6 4 -12
49 -14 100 -2 54 -7 95 -13 97 -6 2 -11 10 -11 18 0 9 5 12 10 9 6 -3 10 -1
10 4 0 6 -4 11 -9 11 -5 0 -12 8 -14 18 -3 11 -5 9 -6 -8 0 -14 -3 -42 -5 -62
-3 -21 -1 -40 4 -43 4 -3 8 -38 9 -78 l1 -73 -43 -1 c-58 -1 -57 -1 -51 -18 4
-8 11 -12 17 -8 5 3 7 1 3 -5 -3 -5 0 -13 6 -15 8 -3 6 -6 -4 -6 -10 -1 -18 4
-18 9 0 6 -4 10 -10 10 -5 0 -10 -7 -10 -16 0 -13 -3 -14 -14 -5 -11 10 -16 8
-21 -9 -4 -12 -4 -24 -2 -27 3 -3 2 -16 -3 -29 -6 -15 -6 -24 0 -24 5 0 8 -6
6 -13 -3 -6 -7 -25 -10 -40 -4 -15 -11 -25 -17 -22 -7 5 -6 12 2 21 10 12 9
13 -4 9 -27 -11 -28 28 -3 81 31 64 35 88 40 255 4 94 12 159 26 210 11 40 20
87 20 104 0 17 6 40 14 50 11 16 11 21 0 33 -8 7 -14 24 -14 38 0 13 -5 24
-11 24 -6 0 -10 24 -8 65 1 36 -1 68 -4 72 -18 17 -2 103 19 103 8 0 14 7 14
15 0 8 0 17 0 20 1 2 15 20 32 39 l31 35 23 -48 c22 -50 51 -81 41 -45 -7 22
-10 64 -8 117 1 34 3 37 25 31 38 -9 126 83 126 134 0 12 9 30 20 39 11 10 20
25 20 33 0 9 6 22 13 29 10 11 9 13 -3 9 -13 -5 -16 7 -16 71 -1 70 5 90 29
91 4 0 7 -24 7 -54 0 -49 12 -77 27 -62 9 8 8 88 0 117 -7 23 -4 27 32 43 22
10 42 25 45 32 4 10 -4 8 -22 -5 -51 -37 -66 -35 -95 10 -15 22 -27 47 -27 54
0 8 19 20 43 26 23 7 46 15 50 19 9 8 -42 90 -55 90 -4 0 -8 -7 -8 -15 0 -13
-6 -17 -26 -14 -4 0 -10 -4 -13 -10 -4 -5 -12 -6 -19 -2 -10 6 -3 13 22 25 20
9 36 21 36 26 0 4 3 15 6 24 5 14 3 14 -30 1 -35 -15 -36 -15 -42 11 -6 23
-11 25 -43 22 l-37 -3 23 43 c26 49 30 87 9 95 -8 3 -15 14 -15 24 1 10 -2 28
-6 41 -4 12 -3 22 1 22 10 0 54 -94 54 -116 0 -8 4 -14 9 -14 13 0 -15 110
-44 171 -25 54 -32 89 -17 89 4 0 22 -9 40 -20 30 -19 36 -29 33 -57 -1 -7 3
-13 9 -13 5 0 10 5 10 10 0 6 4 10 10 10 5 0 7 -8 4 -17 -5 -14 -4 -15 4 -4 8
11 12 9 22 -10 15 -28 49 -63 56 -57 11 11 -123 142 -163 159 -24 10 -46 26
-50 36 -4 10 -15 24 -25 31 -10 7 -18 22 -18 32 0 10 -6 20 -12 23 -7 2 -10 8
-6 12 4 4 16 2 25 -5 10 -7 3 1 -14 17 -36 32 -44 56 -15 46 16 -6 16 -5 0 13
-10 12 -15 28 -12 40 3 12 -1 28 -11 38 -12 12 -13 16 -3 16 7 0 31 -38 53
-85 21 -46 40 -83 42 -82 1 2 -9 34 -22 73 -14 38 -25 84 -25 101 0 47 26 50
215 25 217 -30 211 -30 219 16 3 20 6 47 6 59 0 35 -32 101 -55 113 -27 14
-136 39 -130 29 9 -13 -348 2 -365 16 -23 19 -77 45 -94 45 -22 0 -63 -75 -83
-152 -18 -71 -13 -89 33 -101 11 -3 3 -5 -17 -6 -32 -1 -36 -4 -36 -26 0 -14
3 -25 8 -25 5 0 9 -9 9 -19 0 -21 22 -33 44 -25 8 3 17 1 21 -5 3 -6 15 -11
26 -11 10 0 19 -4 19 -9 0 -18 -67 -4 -108 24 -23 15 -42 31 -42 35 0 3 -12
13 -26 20 l-26 14 24 20 c23 19 23 19 1 12 -13 -4 -49 0 -83 10 -58 16 -73 28
-47 37 6 2 8 8 4 13 -5 5 -13 1 -18 -8 -5 -10 -16 -15 -24 -12 -19 8 -20 24
-2 24 13 0 47 127 47 173 0 26 -25 20 -39 -9z m-19 -146 c-7 -7 -12 -8 -12 -2
0 6 3 14 7 17 3 4 9 5 12 2 2 -3 -1 -11 -7 -17z m315 -4 c-3 -3 -12 -4 -19 -1
-8 3 -5 6 6 6 11 1 17 -2 13 -5z m-762 -149 c-5 -3 -30 -9 -55 -14 -40 -9 -43
-8 -26 5 11 8 36 14 55 13 20 0 32 -2 26 -4z m810 -13 c-3 -3 -11 0 -18 7 -9
10 -8 11 6 5 10 -3 15 -9 12 -12z m45 -4 c0 -6 -6 -5 -15 2 -8 7 -15 14 -15
16 0 2 7 1 15 -2 8 -4 15 -11 15 -16z m-813 -4 c-3 -3 -12 -4 -19 -1 -8 3 -5
6 6 6 11 1 17 -2 13 -5z m-219 -71 c-15 -18 -21 -9 -13 18 6 16 9 18 16 8 4
-8 3 -19 -3 -26z m-388 -32 c0 -8 -6 -11 -16 -7 -9 3 -32 6 -52 7 -48 1 -17
14 33 14 23 0 35 -5 35 -14z m-302 -18 c-9 -10 -13 -23 -11 -30 2 -7 -6 -23
-18 -35 l-23 -23 17 28 c16 25 16 27 0 27 -14 0 -13 4 7 25 26 28 52 35 28 8z
m-76 -15 c-7 -7 -12 -8 -12 -2 0 14 12 26 19 19 2 -3 -1 -11 -7 -17z m290 10
c-7 -7 -33 -14 -59 -15 -34 -2 -52 -10 -69 -28 -27 -29 -42 -32 -40 -7 2 24
29 42 73 48 20 2 39 7 42 9 2 3 18 5 35 5 23 0 27 -3 18 -12z m68 -12 c0 -3
-4 -8 -10 -11 -5 -3 -10 -1 -10 4 0 6 5 11 10 11 6 0 10 -2 10 -4z m30 -6 c0
-5 -4 -10 -10 -10 -5 0 -10 5 -10 10 0 6 5 10 10 10 6 0 10 -4 10 -10z m-408
-60 c-2 -16 -6 -30 -8 -30 -2 0 -4 14 -4 30 0 17 4 30 8 30 5 0 7 -13 4 -30z
m118 6 c0 -3 -4 -8 -10 -11 -5 -3 -10 -1 -10 4 0 6 5 11 10 11 6 0 10 -2 10
-4z m1870 -72 c0 -14 -3 -14 -15 -4 -8 7 -15 14 -15 16 0 2 7 4 15 4 8 0 15
-7 15 -16z m-2050 -63 c0 -11 -39 -25 -47 -18 -3 3 -2 10 2 16 8 13 45 15 45
2z m2030 -32 c0 -11 5 -17 10 -14 6 3 10 1 10 -4 0 -6 -9 -11 -20 -11 -15 0
-20 7 -20 25 0 14 5 25 10 25 6 0 10 -9 10 -21z m-2094 -13 c-8 -32 16 -40 45
-15 12 10 25 17 27 14 14 -13 -81 -67 -102 -59 -21 8 -20 20 5 55 25 35 33 37
25 5z m2144 -153 c-1 -33 -20 -61 -37 -56 -16 6 -17 55 -1 71 21 21 38 14 38
-15z m-2245 -198 c-26 -33 -41 -75 -52 -142 -8 -49 -23 -29 -23 31 0 53 25
102 67 134 31 23 34 12 8 -23z m62 17 c10 -6 9 -13 -3 -30 -8 -12 -20 -22 -26
-22 -6 0 -3 9 7 20 10 11 16 22 14 25 -7 6 -23 -8 -43 -38 -9 -16 -20 -26 -23
-23 -7 6 44 76 55 76 4 0 13 -4 19 -8z m2343 -22 c0 -5 -7 -10 -15 -10 -8 0
-15 5 -15 10 0 6 7 10 15 10 8 0 15 -4 15 -10z m-50 -141 c12 -16 20 -33 17
-36 -9 -9 -27 7 -27 24 0 9 -8 22 -17 29 -10 7 -13 14 -6 14 6 0 21 -14 33
-31z m-2325 -98 c-3 -6 -11 -11 -17 -11 -6 0 -6 6 2 15 14 17 26 13 15 -4z
m-95 -271 c0 -5 -4 -10 -10 -10 -5 0 -10 5 -10 10 0 6 5 10 10 10 6 0 10 -4
10 -10z m2047 -40 c12 0 -1 -32 -16 -40 -33 -17 -48 -12 -53 20 -6 38 -3 40
35 29 18 -5 33 -9 34 -9z m283 -4 c0 -3 -4 -8 -10 -11 -5 -3 -10 -1 -10 4 0 6
5 11 10 11 6 0 10 -2 10 -4z m-552 -96 c3 -21 2 -22 -12 -11 -19 16 -21 44 -3
39 6 -3 14 -15 15 -28z m82 -145 c17 -35 30 -71 30 -80 0 -8 7 -15 16 -15 10
0 14 -5 10 -15 -7 -20 8 -59 33 -84 56 -56 54 -96 -5 -158 -26 -28 -39 -37
-29 -21 9 15 14 32 10 38 -3 5 -1 10 4 10 18 0 12 40 -6 47 -25 9 -37 24 -41
48 -2 11 -11 38 -22 60 -20 41 -61 231 -52 239 10 11 23 -7 52 -69z m-1326
-479 c-2 -6 -13 -17 -24 -24 -18 -11 -20 -10 -20 12 0 18 5 24 24 24 14 0 23
-5 20 -12z m419 -391 c-3 -9 -8 -14 -10 -11 -3 3 -2 9 2 15 9 16 15 13 8 -4z
m1134 -71 c-3 -3 -12 -4 -19 -1 -8 3 -5 6 6 6 11 1 17 -2 13 -5z m88 -4 c3 -5
-1 -10 -10 -10 -9 0 -13 5 -10 10 3 6 8 10 10 10 2 0 7 -4 10 -10z m-92 -173
c10 10 8 -10 -3 -27 -8 -13 -10 -12 -10 3 0 9 -4 17 -9 17 -5 0 -12 8 -15 17
-6 16 -6 16 12 0 10 -9 22 -14 25 -10z"/>
<path d="M4490 4661 c-62 -14 -75 -21 -75 -37 0 -12 -8 -20 -22 -22 -16 -2
-23 2 -23 12 0 9 -2 16 -5 16 -2 0 -66 -14 -142 -31 -76 -17 -151 -34 -166
-36 -17 -3 -32 -14 -37 -27 -6 -18 -27 -26 -106 -46 -55 -13 -91 -26 -80 -28
10 -2 55 -9 100 -15 l81 -12 -3 -415 c-1 -228 -7 -615 -12 -860 -5 -245 -15
-708 -21 -1030 -6 -322 -13 -586 -14 -588 -1 -1 -57 -15 -124 -30 -66 -15
-121 -30 -121 -34 0 -3 23 -14 51 -23 28 -9 49 -19 47 -21 -2 -2 -33 1 -67 7
-35 5 -66 7 -69 4 -3 -3 3 -5 14 -5 16 0 17 -2 4 -10 -11 -8 -9 -9 10 -5 16 3
85 -15 190 -49 91 -31 149 -53 130 -51 -31 5 -32 4 -11 -5 13 -6 32 -8 43 -4
10 3 98 -19 196 -50 278 -86 323 -97 339 -84 11 9 13 8 11 -2 -3 -13 5 -17
130 -58 l62 -21 0 25 c0 16 -8 27 -23 33 -32 13 -34 51 -1 51 l24 0 0 1082 c0
910 -2 1079 -13 1063 -23 -34 -26 -66 -10 -107 13 -32 14 -60 9 -146 -9 -131
-21 -191 -46 -217 -23 -25 -25 -51 -45 -433 -5 -91 -7 -97 -36 -113 -16 -8
-20 -7 -18 3 3 27 -1 39 -12 32 -11 -7 -8 615 6 1086 2 96 7 267 10 380 4 192
19 293 38 274 4 -4 9 0 13 9 3 9 24 18 55 22 l49 7 0 258 c0 143 -4 261 -8
264 -4 2 -43 -2 -87 -10 -106 -18 -129 -18 -121 1 7 18 2 18 -94 -4z m-55
-416 c-8 -392 -23 -406 -24 -23 -1 174 2 324 6 334 17 45 23 -57 18 -311z
m-375 289 c0 -2 -7 -4 -15 -4 -8 0 -15 4 -15 10 0 5 7 7 15 4 8 -4 15 -8 15
-10z m705 -114 c-3 -5 -21 -9 -38 -9 l-32 1 30 8 c43 11 47 11 40 0z m-348
-612 c-3 -8 -6 -5 -6 6 -1 11 2 17 5 13 3 -3 4 -12 1 -19z m-102 -1221 c-4
-18 -14 -54 -22 -82 -15 -46 -17 -48 -25 -25 -11 31 0 129 13 109 5 -8 9 -9
10 -4 1 6 3 15 4 20 2 6 3 14 4 18 0 5 6 5 12 2 6 -4 8 -20 4 -38z m365 -261
c0 -2 -7 -7 -16 -10 -8 -3 -12 -2 -9 4 6 10 25 14 25 6z"/>
<path d="M1740 4555 c-10 -12 -10 -15 4 -15 9 0 16 7 16 15 0 8 -2 15 -4 15
-2 0 -9 -7 -16 -15z"/>
<path d="M1890 4560 c0 -5 5 -10 11 -10 5 0 7 5 4 10 -3 6 -8 10 -11 10 -2 0
-4 -4 -4 -10z"/>
<path d="M1679 4541 c-28 -23 -20 -38 10 -19 22 13 36 38 22 38 -5 0 -19 -9
-32 -19z"/>
<path d="M918 4153 c-54 -28 -61 -43 -21 -43 29 0 95 39 90 54 -6 18 -22 15
-69 -11z"/>
<path d="M919 3931 c-19 -19 -29 -39 -28 -58 l1 -28 11 32 c7 18 20 40 30 50
15 16 19 16 27 3 7 -11 9 -10 7 8 -2 29 -13 28 -48 -7z"/>
<path d="M900 3832 c0 -6 6 -17 14 -25 11 -10 12 -17 4 -25 -8 -8 -5 -9 11 -5
l22 6 -23 26 c-13 14 -24 28 -25 30 -2 2 -3 -1 -3 -7z"/>
<path d="M60 3730 c0 -5 5 -10 10 -10 6 0 10 5 10 10 0 6 -4 10 -10 10 -5 0
-10 -4 -10 -10z"/>
<path d="M4792 3510 c0 -19 2 -27 5 -17 2 9 2 25 0 35 -3 9 -5 1 -5 -18z"/>
<path d="M80 3495 c0 -8 7 -15 16 -15 14 0 14 3 4 15 -7 8 -14 15 -16 15 -2 0
-4 -7 -4 -15z"/>
<path d="M92 3440 c0 -19 2 -27 5 -17 2 9 2 25 0 35 -3 9 -5 1 -5 -18z"/>
<path d="M3090 2664 c0 -16 5 -36 11 -44 7 -11 8 -4 3 25 -8 50 -14 58 -14 19z"/>
<path d="M1213 2564 c-10 -22 -10 -25 3 -20 9 3 18 6 20 6 2 0 4 9 4 20 0 28
-13 25 -27 -6z"/>
<path d="M1040 2490 c0 -5 7 -10 15 -10 8 0 15 5 15 10 0 6 -7 10 -15 10 -8 0
-15 -4 -15 -10z"/>
<path d="M1468 2198 c8 -8 9 -15 1 -25 -9 -10 -7 -13 5 -13 10 0 15 -4 12 -9
-4 -5 3 -7 14 -4 26 7 26 30 0 38 -11 3 -20 11 -20 16 0 5 -5 9 -12 9 -9 0 -9
-3 0 -12z"/>
<path d="M3015 2140 c-3 -5 -1 -10 4 -10 6 0 11 5 11 10 0 6 -2 10 -4 10 -3 0
-8 -4 -11 -10z"/>
<path d="M3048 2113 c7 -3 16 -2 19 1 4 3 -2 6 -13 5 -11 0 -14 -3 -6 -6z"/>
<path d="M925 1638 c-24 -46 -32 -68 -21 -58 18 14 70 120 63 127 -3 2 -21
-29 -42 -69z"/>
<path d="M2617 1573 c47 -73 112 -153 117 -144 4 5 -4 20 -16 34 -43 45 -59
68 -52 78 6 10 -43 59 -59 59 -4 0 1 -12 10 -27z"/>
<path d="M1925 1530 c-3 -5 -1 -10 4 -10 6 0 11 5 11 10 0 6 -2 10 -4 10 -3 0
-8 -4 -11 -10z"/>
<path d="M3640 1446 c0 -2 7 -7 16 -10 8 -3 12 -2 9 4 -6 10 -25 14 -25 6z"/>
<path d="M2740 1396 c0 -8 4 -17 9 -20 5 -4 28 -41 52 -84 63 -116 94 -152
132 -153 29 0 30 -1 10 -9 -26 -11 -27 -14 -12 -43 21 -39 56 -75 66 -69 22
16 23 44 1 63 -15 11 -18 18 -9 19 11 0 11 3 0 18 -13 15 -12 16 3 3 10 -7 15
-18 11 -25 -4 -7 -1 -6 7 1 11 10 10 17 -5 35 -11 13 -13 17 -5 11 19 -17 30
-16 30 2 0 8 -7 15 -16 15 -8 0 -12 4 -9 10 3 5 1 18 -4 27 -8 14 -10 15 -11
3 0 -8 -10 -21 -21 -29 -20 -11 -21 -11 -15 4 4 12 2 16 -8 12 -7 -3 -19 0
-25 6 -8 8 -11 7 -11 -6 0 -22 -27 -11 -33 14 -3 10 -1 17 3 14 5 -3 11 -1 15
4 3 6 -13 22 -35 37 -23 15 -39 32 -36 39 2 6 -4 17 -15 23 -11 7 -16 18 -13
27 7 17 -9 41 -38 56 -14 7 -18 6 -18 -5z m195 -236 c3 -5 1 -10 -4 -10 -6 0
-11 5 -11 10 0 6 2 10 4 10 3 0 8 -4 11 -10z"/>
<path d="M3760 1400 c8 -5 22 -9 30 -9 10 0 8 3 -5 9 -27 12 -43 12 -25 0z"/>
<path d="M2210 1366 c0 -2 7 -7 16 -10 8 -3 12 -2 9 4 -6 10 -25 14 -25 6z"/>
<path d="M3190 1352 c0 -4 15 -13 33 -20 l32 -12 -25 20 c-27 21 -40 25 -40
12z"/>
<path d="M2266 1325 c4 -8 11 -15 16 -15 6 0 5 6 -2 15 -7 8 -14 15 -16 15 -2
0 -1 -7 2 -15z"/>
<path d="M3253 1315 c-10 -11 -10 -16 -1 -21 7 -4 14 -2 16 5 3 8 16 10 40 5
l37 -6 -29 16 c-34 19 -47 20 -63 1z"/>
<path d="M2210 1310 c0 -5 5 -10 10 -10 6 0 10 5 10 10 0 6 -4 10 -10 10 -5 0
-10 -4 -10 -10z"/>
<path d="M4126 1285 c17 -7 44 -16 60 -20 25 -4 24 -3 -6 8 -19 8 -46 17 -60
20 -19 5 -17 3 6 -8z"/>
<path d="M3435 1261 c69 -34 161 -69 169 -64 12 8 -12 20 -89 44 -94 29 -103
31 -80 20z"/>
<path d="M4230 1250 c8 -5 24 -9 35 -9 l20 0 -20 9 c-11 5 -27 9 -35 9 -13 1
-13 0 0 -9z"/>
<path d="M3216 1185 c-9 -24 -8 -25 12 -18 15 5 15 4 -2 -9 -11 -9 -18 -27
-18 -44 3 -124 7 -184 14 -184 9 0 13 37 9 88 -1 21 3 32 11 32 10 0 10 2 -1
9 -7 5 -10 14 -6 20 4 8 11 9 18 3 7 -5 26 -12 42 -15 17 -3 39 -8 50 -12 11
-3 -7 8 -40 26 -75 39 -72 37 -50 53 15 11 17 17 8 27 -6 8 -11 19 -12 24 0
17 -28 17 -35 0z"/>
<path d="M3118 1177 c-55 -12 -60 -23 -47 -110 5 -34 9 -94 9 -134 0 -100 11
-125 52 -121 l33 3 3 68 c2 53 6 68 16 64 23 -9 27 5 9 25 -11 13 -19 42 -21
84 -4 52 -8 64 -21 64 -9 0 -22 -5 -29 -12 -16 -16 -15 -80 1 -97 10 -11 9
-13 -3 -9 -11 3 -16 21 -18 61 -3 48 0 57 18 67 12 7 32 9 44 6 20 -5 22 -2
18 24 -2 17 -7 29 -11 29 -3 -1 -27 -6 -53 -12z"/>
<path d="M3458 1103 c7 -3 16 -2 19 1 4 3 -2 6 -13 5 -11 0 -14 -3 -6 -6z"/>
<path d="M3440 1015 c0 -18 7 -28 25 -35 22 -8 23 -12 14 -40 -9 -25 -16 -30
-44 -30 -37 0 -51 -12 -32 -28 20 -17 267 -19 267 -2 0 6 -12 10 -26 10 -14 0
-23 4 -19 10 6 9 -1 11 -50 15 -21 1 -22 5 -11 41 6 19 3 21 -23 18 -27 -3
-30 -1 -33 29 -3 28 -7 32 -35 35 -30 3 -33 1 -33 -23z m50 -6 c0 -4 -7 -6
-15 -3 -8 4 -15 10 -15 15 0 4 7 6 15 3 8 -4 15 -10 15 -15z"/>
<path d="M3010 979 c0 -5 5 -7 10 -4 6 3 10 8 10 11 0 2 -4 4 -10 4 -5 0 -10
-5 -10 -11z"/>
<path d="M3660 913 c0 -8 69 -33 92 -33 7 0 4 6 -7 14 -25 17 -85 31 -85 19z"/>
<path d="M3210 891 c0 -13 26 -32 33 -24 8 7 -11 33 -24 33 -5 0 -9 -4 -9 -9z"/>
<path d="M3458 843 c-10 -3 -18 -11 -18 -20 0 -13 8 -15 41 -10 39 5 57 13 48
21 -8 7 -55 13 -71 9z"/>
<path d="M3672 815 c0 -16 2 -22 5 -12 2 9 2 23 0 30 -3 6 -5 -1 -5 -18z"/>
<path d="M3706 828 c-3 -10 -8 -24 -10 -32 -3 -7 -90 -41 -200 -77 -108 -35
-196 -66 -196 -70 0 -7 91 -39 111 -39 29 0 173 51 184 65 6 7 26 13 45 12 19
0 48 6 65 14 26 13 30 19 27 51 -2 20 -7 50 -11 65 -7 23 -10 25 -15 11z m-46
-96 c0 -27 -8 -31 -34 -19 -21 10 -22 13 -7 24 23 18 41 16 41 -5z m-203 -58
c-3 -3 -12 -4 -19 -1 -8 3 -5 6 6 6 11 1 17 -2 13 -5z"/>
<path d="M3085 773 c8 -18 18 -33 20 -33 10 0 4 16 -16 40 l-20 25 16 -32z"/>
<path d="M3116 713 c-6 -14 -5 -15 5 -6 7 7 10 15 7 18 -3 3 -9 -2 -12 -12z"/>
<path d="M2700 640 c13 -24 54 -53 58 -41 4 12 -28 45 -51 54 -15 5 -16 3 -7
-13z"/>
<path d="M2778 595 l-3 -66 52 -29 c56 -32 86 -67 81 -96 -2 -13 6 -21 29 -27
25 -8 41 -25 74 -79 22 -38 38 -73 34 -76 -9 -9 -57 47 -50 58 3 4 -2 13 -10
20 -8 7 -15 20 -15 30 0 9 -12 23 -27 30 -16 8 -40 27 -55 42 -15 17 -40 30
-58 33 -17 2 -37 9 -44 14 -7 6 -26 13 -42 15 -36 6 -54 11 -78 21 -10 5 -21
4 -25 -3 -3 -6 -15 -10 -26 -9 -13 1 -19 -3 -17 -14 3 -21 -46 -35 -62 -18 -8
8 -5 10 12 4 17 -5 22 -2 22 12 0 10 -4 14 -8 8 -13 -18 -61 -12 -68 7 -4 14
-16 18 -55 18 -36 0 -48 -3 -43 -12 5 -8 0 -9 -14 -6 -12 4 -22 2 -22 -3 0 -5
-9 -9 -21 -9 -14 0 -19 -5 -16 -14 3 -8 -1 -20 -9 -26 -9 -8 -14 -9 -14 -2 0
6 6 13 13 15 7 3 6 6 -5 6 -9 1 -19 -3 -22 -8 -3 -4 -24 -11 -47 -15 -23 -4
-39 -9 -36 -13 8 -8 -37 -43 -56 -43 -16 0 -108 -39 -92 -40 5 0 -7 -12 -28
-27 -20 -14 -37 -29 -37 -34 0 -4 -11 -10 -25 -13 -24 -6 -35 -26 -14 -26 5 0
7 -5 3 -11 -5 -8 -8 -8 -14 0 -5 9 -10 8 -20 -4 -7 -8 -18 -15 -24 -15 -20 0
-113 -79 -118 -100 -4 -18 -24 -40 -36 -40 -4 0 -19 -11 -32 -25 l-24 -26 347
1 c191 1 345 5 342 10 -2 4 4 10 16 13 16 4 18 3 8 -9 -9 -11 -7 -14 10 -14
15 0 20 4 15 12 -6 10 -4 11 7 1 15 -15 39 -17 39 -4 0 5 -10 11 -22 15 -19 5
-20 8 -8 16 8 5 25 7 37 3 17 -4 23 -1 23 10 0 21 19 32 32 19 6 -6 17 -8 24
-5 8 3 14 -1 14 -11 0 -17 29 -49 48 -54 7 -1 12 7 12 17 0 11 4 22 9 26 15 8
24 -14 12 -29 -9 -10 17 -13 135 -15 106 -1 144 1 139 9 -4 7 -18 9 -32 6 -35
-9 -45 1 -27 29 10 15 12 25 5 30 -8 4 -8 12 -1 26 9 15 7 19 -5 19 -9 0 -13
-4 -10 -10 3 -5 -6 -12 -21 -16 -29 -7 -47 10 -39 37 4 13 0 15 -18 12 -32 -6
-101 59 -92 87 7 22 -18 29 -30 9 -10 -15 -32 20 -40 64 -4 20 -10 37 -14 37
-4 0 -7 10 -5 23 1 12 3 30 3 40 1 23 21 22 21 -2 0 -35 22 -80 41 -86 11 -4
25 -19 31 -33 7 -17 12 -22 15 -13 5 13 7 12 79 -58 13 -13 24 -20 24 -16 0 4
7 2 15 -5 8 -7 15 -22 15 -33 0 -16 3 -18 11 -10 9 9 17 6 31 -12 11 -14 16
-30 12 -36 -4 -7 -3 -9 3 -6 5 3 21 -15 35 -41 l25 -47 127 -3 126 -3 0 25 c0
14 -4 27 -9 31 -5 3 -12 19 -16 35 -4 17 -11 30 -16 30 -6 0 -9 6 -7 13 3 17
-24 87 -35 87 -4 0 -6 4 -3 9 9 15 -22 78 -49 99 -14 11 -25 29 -25 41 0 11
-9 25 -20 31 -11 6 -20 20 -20 32 0 12 -3 19 -6 15 -3 -3 -27 9 -54 28 -26 18
-67 37 -91 42 -44 9 -44 9 -46 53 -4 103 -30 121 -35 25z m-731 -381 c-3 -3
-12 -4 -19 -1 -8 3 -5 6 6 6 11 1 17 -2 13 -5z m638 -34 c-3 -5 -10 -10 -16
-10 -5 0 -9 5 -9 10 0 6 7 10 16 10 8 0 12 -4 9 -10z m-308 -32 c-3 -8 -6 -5
-6 6 -1 11 2 17 5 13 3 -3 4 -12 1 -19z m73 2 c0 -5 -4 -10 -10 -10 -5 0 -7
-7 -4 -15 4 -8 1 -15 -5 -15 -6 0 -11 5 -11 11 0 5 -6 7 -12 3 -7 -4 -4 2 7
14 22 23 35 27 35 12z m-95 -10 c3 -5 -1 -10 -10 -10 -9 0 -13 5 -10 10 3 6 8
10 10 10 2 0 7 -4 10 -10z m123 -28 c-11 -13 -10 -15 10 -10 18 5 21 4 13 -6
-6 -7 -8 -16 -4 -19 6 -7 -19 -11 -44 -8 -6 1 -14 -3 -18 -9 -9 -15 -35 -12
-35 4 0 8 13 17 29 21 21 5 28 11 24 22 -3 8 0 19 8 23 20 13 32 0 17 -18z
m-278 14 c0 -3 -4 -8 -10 -11 -5 -3 -10 -1 -10 4 0 6 5 11 10 11 6 0 10 -2 10
-4z m45 -6 c-3 -5 -11 -10 -16 -10 -6 0 -7 5 -4 10 3 6 11 10 16 10 6 0 7 -4
4 -10z m162 -25 c-6 -17 -37 -18 -37 -1 0 9 8 14 20 13 11 -1 19 -6 17 -12z
m-47 -25 c0 -5 -2 -10 -4 -10 -3 0 -8 5 -11 10 -3 6 -1 10 4 10 6 0 11 -4 11
-10z m430 0 c0 -5 -2 -10 -4 -10 -3 0 -8 5 -11 10 -3 6 -1 10 4 10 6 0 11 -4
11 -10z m-572 -18 c2 -7 -2 -10 -12 -6 -9 3 -16 11 -16 16 0 13 23 5 28 -10z
m552 -2 c0 -5 -2 -10 -4 -10 -3 0 -8 5 -11 10 -3 6 -1 10 4 10 6 0 11 -4 11
-10z m58 -10 c-15 -23 -33 -26 -44 -7 -4 6 -4 9 1 5 4 -4 17 -1 29 7 27 20 29
19 14 -5z"/>
<path d="M3280 630 c0 -9 84 -50 103 -50 19 0 -6 18 -55 39 -27 11 -48 16 -48
11z"/>
<path d="M2680 612 c0 -12 19 -26 26 -19 2 2 -2 10 -11 17 -9 8 -15 8 -15 2z"/>
<path d="M1846 592 c-3 -5 1 -9 9 -9 8 0 12 4 9 9 -3 4 -7 8 -9 8 -2 0 -6 -4
-9 -8z"/>
<path d="M3362 565 c9 -10 21 -16 28 -13 7 2 -1 10 -16 17 -27 12 -28 11 -12
-4z"/>
<path d="M2425 543 c-44 -8 -82 -18 -85 -22 -3 -5 -13 -7 -23 -5 -9 1 -15 -2
-11 -7 3 -5 -4 -9 -15 -9 -11 0 -23 -5 -26 -10 -4 -6 -15 -8 -26 -5 -14 5 -17
2 -13 -9 4 -11 -13 -25 -68 -51 -40 -20 -81 -34 -90 -31 -11 2 -18 -1 -18 -10
0 -8 -9 -14 -20 -14 -11 0 -25 -9 -32 -20 -7 -11 -19 -20 -26 -20 -7 0 -10 -4
-7 -10 3 -5 0 -10 -8 -10 -8 0 -17 -7 -20 -15 -7 -17 -66 -13 -78 7 -4 7 -10
10 -14 7 -3 -3 3 -17 13 -30 22 -28 18 -49 -9 -49 -11 0 -19 -7 -19 -16 0 -11
-6 -14 -22 -8 -21 6 -21 5 -9 -10 13 -16 12 -17 -12 -11 -23 6 -26 5 -21 -10
4 -10 1 -21 -7 -26 -21 -13 -32 -11 -25 6 3 8 1 15 -5 15 -6 0 -8 -11 -4 -28
5 -27 3 -29 -36 -41 -33 -10 -43 -10 -49 -1 -4 7 -12 10 -18 6 -7 -4 -1 -16
14 -31 29 -29 27 -45 -7 -62 l-24 -13 23 0 c15 0 43 22 85 66 217 231 518 412
785 471 19 5 33 25 15 22 -5 -1 -44 -8 -88 -16z"/>
<path d="M1860 529 c0 -5 5 -7 10 -4 6 3 10 8 10 11 0 2 -4 4 -10 4 -5 0 -10
-5 -10 -11z"/>
<path d="M3180 515 c-8 -9 -8 -15 -2 -15 12 0 26 19 19 26 -2 2 -10 -2 -17
-11z"/>
<path d="M3580 485 c0 -8 5 -15 10 -15 6 0 10 7 10 15 0 8 -4 15 -10 15 -5 0
-10 -7 -10 -15z"/>
<path d="M1490 467 c0 -3 12 -12 26 -22 15 -9 23 -12 20 -6 -7 11 -46 35 -46
28z"/>
<path d="M1595 430 c3 -5 8 -10 11 -10 2 0 4 5 4 10 0 6 -5 10 -11 10 -5 0 -7
-4 -4 -10z"/>
<path d="M1760 405 c-16 -19 0 -19 26 0 16 12 16 14 3 15 -9 0 -22 -7 -29 -15z"/>
<path d="M1711 386 c27 -26 32 -27 24 -3 -4 8 -16 18 -27 21 -20 5 -20 4 3
-18z"/>
<path d="M1170 386 c0 -2 7 -7 16 -10 8 -3 12 -2 9 4 -6 10 -25 14 -25 6z"/>
<path d="M1376 363 c-6 -14 -5 -15 5 -6 7 7 10 15 7 18 -3 3 -9 -2 -12 -12z"/>
<path d="M1031 367 c2 -1 12 -9 22 -16 14 -12 17 -11 17 3 0 10 -8 16 -22 16
-12 0 -19 -1 -17 -3z"/>
<path d="M1209 366 c-1 -3 -3 -10 -4 -16 -1 -5 -3 -13 -4 -17 0 -4 -7 2 -15
13 -12 15 -17 16 -27 7 -10 -10 -6 -15 17 -23 19 -7 30 -8 32 -1 2 5 10 7 18
4 8 -3 14 -2 14 2 0 9 -30 38 -31 31z"/>
<path d="M1337 343 c15 -39 63 -72 63 -43 0 6 -7 10 -16 10 -8 0 -12 5 -9 10
7 11 -18 40 -34 40 -6 0 -7 -8 -4 -17z"/>
<path d="M1700 350 c0 -5 5 -10 10 -10 6 0 10 5 10 10 0 6 -4 10 -10 10 -5 0
-10 -4 -10 -10z"/>
<path d="M1395 340 c-3 -5 -1 -10 4 -10 6 0 11 5 11 10 0 6 -2 10 -4 10 -3 0
-8 -4 -11 -10z"/>
<path d="M1094 314 c3 -9 6 -19 6 -22 0 -9 20 21 20 31 0 4 -7 7 -16 7 -11 0
-14 -5 -10 -16z"/>
<path d="M1464 308 c1 -17 -5 -24 -21 -26 -26 -4 -29 -12 -11 -30 8 -8 8 -12
1 -12 -6 0 -13 7 -17 15 -3 8 -10 15 -16 15 -6 0 -3 -11 7 -24 10 -13 24 -21
32 -18 9 3 12 0 9 -9 -2 -8 -14 -15 -26 -17 -17 -3 -22 2 -22 20 0 23 0 23
-25 -4 -26 -28 -32 -48 -15 -48 6 0 10 5 10 10 0 6 5 10 11 10 7 0 8 -7 4 -17
-5 -10 -8 -25 -9 -34 0 -19 -24 -19 -36 1 -6 10 -11 8 -19 -9 -7 -11 -8 -21
-2 -21 22 0 18 -30 -6 -45 -14 -10 -22 -12 -19 -6 4 6 2 11 -3 11 -37 0 33
-66 72 -68 19 -1 26 2 21 10 -5 8 -2 9 12 3 10 -5 54 -10 97 -11 66 -2 76 0
66 12 -7 8 -9 18 -5 21 7 7 21 -9 29 -32 3 -6 8 -6 13 -2 5 4 2 12 -6 17 -14
9 -7 14 13 11 4 0 7 8 7 19 0 11 -4 20 -10 20 -5 0 -10 5 -10 11 0 5 -13 24
-30 42 -23 25 -30 28 -30 15 0 -10 5 -18 10 -18 6 0 10 -4 10 -10 0 -6 -9 -6
-25 0 -14 5 -31 7 -38 4 -9 -3 -12 6 -9 37 4 38 3 41 -16 37 -14 -4 -19 -2
-16 7 7 18 60 13 84 -8 11 -9 25 -17 30 -17 5 0 7 -7 4 -15 -5 -11 -2 -13 10
-9 11 4 16 1 16 -10 0 -9 7 -16 15 -16 21 0 19 20 -6 41 -11 10 -18 22 -15 28
8 12 -27 32 -46 28 -7 -2 -10 -2 -5 0 18 11 5 23 -18 17 -18 -4 -27 -1 -31 10
-8 22 4 35 16 17 4 -8 15 -11 23 -8 9 3 18 -1 21 -9 3 -9 10 -13 16 -9 5 3 -5
20 -23 38 -17 17 -31 35 -29 40 2 5 -4 7 -13 4 -8 -4 -15 -2 -15 3 0 6 -4 10
-8 10 -5 0 -8 -10 -8 -22z m-54 -153 c-7 -8 -16 -15 -21 -15 -5 0 -6 7 -3 15
4 8 13 15 21 15 13 0 13 -3 3 -15z m60 -89 c0 -3 -4 -8 -10 -11 -5 -3 -10 -1
-10 4 0 6 5 11 10 11 6 0 10 -2 10 -4z m114 -5 c4 -5 -3 -7 -14 -4 -23 6 -26
13 -6 13 8 0 17 -4 20 -9z"/>
<path d="M1616 295 c4 -8 13 -15 22 -15 12 0 13 -3 4 -12 -18 -18 -15 -23 12
-26 18 -1 23 3 22 21 -1 28 -27 51 -38 34 -6 -9 -8 -9 -8 1 0 6 -4 12 -10 12
-5 0 -7 -7 -4 -15z"/>
<path d="M1340 275 c7 -9 10 -19 6 -22 -4 -4 -11 -1 -16 7 -7 12 -12 12 -22 2
-16 -16 -31 -15 -25 2 5 12 -2 14 -30 10 -43 -5 -52 -11 -29 -19 49 -15 52
-18 34 -22 -11 -3 -18 -14 -18 -29 l0 -24 21 21 c16 16 23 18 34 9 8 -6 11
-18 8 -26 -8 -21 15 -17 27 5 13 26 13 31 -4 31 -8 0 -18 5 -21 11 -12 19 3
22 27 5 28 -20 34 -20 42 -1 6 16 -21 55 -37 55 -5 0 -4 -7 3 -15z"/>
<path d="M1570 276 c0 -9 5 -16 10 -16 6 0 10 4 10 9 0 6 -4 13 -10 16 -5 3
-10 -1 -10 -9z"/>
<path d="M1096 263 c-3 -3 -1 -14 4 -24 8 -14 6 -20 -7 -28 -10 -5 -15 -13
-10 -17 4 -4 16 1 27 11 11 10 23 15 28 10 4 -4 1 -10 -6 -12 -6 -3 -10 -9 -7
-13 3 -5 11 -7 18 -4 7 2 23 -7 35 -21 12 -14 27 -25 33 -25 5 0 7 -4 4 -10
-3 -6 1 -7 9 -4 9 3 16 15 16 26 0 17 -3 18 -15 8 -12 -10 -15 -9 -15 4 0 9
-7 19 -15 22 -8 4 -15 12 -15 18 0 14 -76 67 -84 59z"/>
<path d="M644 235 c-7 -17 3 -35 18 -35 7 0 6 5 -2 15 -6 8 -9 19 -5 25 3 5 4
10 0 10 -3 0 -8 -7 -11 -15z"/>
<path d="M830 240 c0 -5 7 -10 16 -10 8 0 12 5 9 10 -3 6 -10 10 -16 10 -5 0
-9 -4 -9 -10z"/>
<path d="M1590 245 c0 -14 43 -46 56 -41 21 8 17 20 -13 34 -29 13 -43 15 -43
7z"/>
<path d="M722 215 c6 -14 15 -25 19 -25 5 0 3 11 -3 25 -6 14 -15 25 -19 25
-5 0 -3 -11 3 -25z"/>
<path d="M1690 230 c0 -5 5 -10 11 -10 5 0 7 5 4 10 -3 6 -8 10 -11 10 -2 0
-4 -4 -4 -10z"/>
<path d="M843 220 c-23 -10 -32 -30 -12 -30 6 0 8 -8 5 -18 -9 -27 16 -56 42
-48 16 5 19 13 16 34 -3 15 -10 29 -15 31 -6 1 -3 12 7 22 16 18 16 19 -2 18
-10 0 -29 -4 -41 -9z"/>
<path d="M620 170 c-8 -5 -11 -12 -8 -16 4 -3 14 1 23 10 18 17 9 21 -15 6z"/>
<path d="M676 164 c-3 -9 -4 -20 0 -25 7 -12 64 -11 64 1 0 6 -9 10 -20 10
-11 0 -20 7 -20 15 0 20 -16 19 -24 -1z"/>
<path d="M956 163 c13 -14 17 -14 26 -2 7 11 11 11 15 2 2 -7 12 -13 21 -13
32 0 -6 23 -42 26 -33 2 -34 1 -20 -13z"/>
<path d="M1060 156 c0 -8 -7 -17 -16 -20 -13 -5 -14 -9 -4 -21 16 -20 32 -19
51 3 27 32 34 48 12 30 -28 -25 -47 -24 -33 2 7 14 7 20 0 20 -5 0 -10 -6 -10
-14z"/>
<path d="M754 135 c3 -9 0 -15 -9 -15 -8 0 -15 -9 -15 -19 0 -14 -5 -18 -20
-14 -11 3 -17 9 -14 14 3 5 -2 9 -11 9 -11 0 -15 -5 -11 -15 6 -17 -9 -21 -20
-4 -3 6 -15 8 -26 6 -16 -5 -19 -2 -15 14 3 10 1 16 -4 13 -6 -3 -17 0 -25 7
-8 6 -17 9 -21 6 -3 -4 2 -9 11 -13 17 -7 23 -34 7 -34 -6 0 -8 -12 -7 -27 2
-16 4 -36 5 -45 1 -15 11 -18 61 -18 41 0 60 4 60 13 0 8 3 9 8 1 4 -6 26 -12
49 -12 36 -2 41 1 37 16 -5 16 -5 16 6 0 8 -14 25 -18 68 -18 32 0 63 5 69 11
8 8 13 8 17 0 13 -20 27 -12 16 9 -9 17 -8 20 14 20 13 0 31 3 40 6 9 3 16 1
16 -4 0 -6 -9 -14 -20 -17 -40 -13 -18 -22 55 -23 44 -1 75 2 75 8 0 6 -7 10
-16 10 -11 0 -15 6 -11 20 3 11 2 18 -3 15 -4 -3 -14 2 -21 11 -10 13 -10 17
1 24 8 5 12 12 8 15 -3 4 -16 -3 -28 -15 -23 -23 -53 -20 -44 4 9 25 -38 43
-65 25 -13 -8 -11 -9 7 -5 15 3 22 0 19 -7 -2 -7 -12 -12 -23 -13 -46 -2 -49
-3 -36 -16 15 -15 16 -28 2 -28 -5 0 -10 6 -10 13 0 20 -33 47 -58 47 -11 0
-24 5 -28 11 -3 6 -14 9 -24 6 -11 -3 -21 1 -24 9 -3 8 -15 14 -27 14 -15 0
-19 -5 -15 -15z m26 -35 c0 -5 -4 -10 -10 -10 -5 0 -10 5 -10 10 0 6 5 10 10
10 6 0 10 -4 10 -10z m94 -22 c-3 -5 -12 -4 -20 3 -19 16 -18 18 6 12 11 -3
17 -9 14 -15z m-76 -21 c8 -9 2 -12 -24 -13 -38 -1 -46 12 -11 19 12 2 23 5
23 6 1 0 6 -5 12 -12z m-142 -22 c16 -14 24 -25 17 -25 -7 0 -24 11 -39 25
-35 33 -16 33 22 0z m84 -5 c20 -6 21 -8 5 -8 -11 0 -29 3 -40 8 -25 11 1 11
35 0z m180 0 c0 -5 -2 -10 -4 -10 -3 0 -8 5 -11 10 -3 6 -1 10 4 10 6 0 11 -4
11 -10z"/>
<path d="M1246 121 c-4 -7 -5 -15 -2 -18 9 -9 19 4 14 18 -4 11 -6 11 -12 0z"/>
<path d="M1295 90 c-3 -5 1 -10 10 -10 9 0 13 5 10 10 -3 6 -8 10 -10 10 -2 0
-7 -4 -10 -10z"/>
<path d="M1190 64 c6 -16 17 -32 23 -36 9 -6 9 -8 -1 -8 -7 0 -10 -4 -7 -10 8
-13 55 -13 55 0 0 11 -28 41 -63 69 -16 13 -17 12 -7 -15z"/>
<path d="M4402 23 c3 -15 15 -18 63 -20 l60 -2 -40 19 c-52 25 -88 26 -83 3z"/>
<path d="M2538 3 c7 -3 16 -2 19 1 4 3 -2 6 -13 5 -11 0 -14 -3 -6 -6z"/>
</g>
</svg>
